<svg xmlns="http://www.w3.org/2000/svg" width="200" height="30" viewBox="0 0 200 30">
  <rect width="200" height="30" rx="6" fill="#ff5e5b"/>
  <g fill="none" stroke="#ffffff" stroke-width="1.7" stroke-linecap="round" stroke-linejoin="round" transform="translate(17 7)"><path d="M1 4h12v5.5a5 5 0 0 1-5 5H6a5 5 0 0 1-5-5z"/><path d="M13 6h1.5a2.5 2.5 0 0 1 0 5H13"/></g><path d="M24.2 14.6c-1.6-1.3-2.4-2.1-2.4-3a1.3 1.3 0 0 1 2.4-.7 1.3 1.3 0 0 1 2.4.7c0 .9-.8 1.7-2.4 3z" fill="#ffffff"/>
  <text x="111" y="19.5" text-anchor="middle" font-family="Segoe UI, -apple-system, BlinkMacSystemFont, Helvetica, Arial, sans-serif" font-size="13" font-weight="600" fill="#ffffff">Support me on Ko-fi</text>
</svg>